<?xml version="1.0" standalone="no"?>
<!DOCTYPE svg PUBLIC "-//W3C//DTD SVG 20010904//EN"
 "http://www.w3.org/TR/2001/REC-SVG-20010904/DTD/svg10.dtd">
<svg version="1.0" xmlns="http://www.w3.org/2000/svg"
 width="1200.000000pt" height="1200.000000pt" viewBox="0 0 1200.000000 1200.000000"
 preserveAspectRatio="xMidYMid meet">

<g transform="translate(0.000000,1200.000000) scale(0.100000,-0.100000)"
fill="#000000" stroke="none">
<path d="M4935 11199 c-1569 -100 -2875 -846 -3684 -2105 -471 -734 -753
-1592 -846 -2579 -22 -230 -31 -780 -16 -1020 51 -832 236 -1572 560 -2240
840 -1730 2478 -2700 4481 -2652 942 23 1707 219 2335 597 1032 623 1762 1798
1890 3042 8 81 15 161 15 178 l0 30 -953 0 -953 0 -12 -107 c-72 -644 -388
-1246 -847 -1616 -187 -150 -413 -279 -639 -362 -564 -208 -1302 -214 -1896
-15 -1069 359 -1800 1361 -2004 2750 -98 665 -63 1462 93 2104 264 1087 867
1858 1723 2202 598 240 1383 266 2003 67 582 -187 1026 -565 1281 -1088 90
-187 152 -378 200 -622 l4 -23 946 0 946 0 -7 53 c-114 876 -469 1633 -1045
2231 -684 710 -1639 1103 -2855 1176 -195 11 -530 11 -720 -1z"/>
<path d="M4250 6310 l0 -1070 185 0 184 0 3 508 3 507 31 65 c42 90 84 134
161 172 59 29 75 32 152 32 106 -1 175 -27 226 -87 65 -76 65 -73 65 -664 l0
-533 185 0 185 0 0 563 c0 625 -2 646 -65 774 -78 159 -249 253 -460 253 -167
0 -304 -58 -410 -173 -36 -38 -65 -73 -65 -78 0 -5 -3 -9 -7 -9 -5 0 -7 182
-5 405 l2 405 -185 0 -185 0 0 -1070z"/>
<path d="M3145 6821 c-261 -42 -429 -185 -454 -386 -10 -87 3 -195 32 -258 70
-152 190 -215 554 -291 94 -20 191 -43 215 -52 103 -36 148 -90 148 -176 -1
-140 -126 -218 -330 -205 -185 11 -279 82 -326 245 -2 9 -47 12 -179 12 -133
0 -175 -3 -175 -12 0 -7 7 -42 15 -77 47 -197 202 -339 440 -403 67 -18 108
-21 255 -21 149 -1 187 3 255 21 161 44 290 133 348 239 93 172 69 416 -53
542 -88 91 -191 132 -476 191 -241 50 -298 69 -344 115 -32 32 -35 40 -35 93
0 49 5 65 29 96 47 62 101 81 231 81 101 0 115 -2 168 -29 62 -30 111 -84 122
-137 l7 -29 174 0 c198 0 187 -7 153 93 -55 166 -183 277 -378 329 -84 22
-309 33 -396 19z"/>
<path d="M6453 6819 c-238 -36 -415 -171 -474 -360 -10 -33 -19 -76 -19 -95
l0 -34 169 0 169 0 7 37 c25 137 131 207 310 207 75 0 100 -5 146 -26 89 -40
138 -125 125 -214 -15 -114 -90 -151 -391 -194 -343 -49 -488 -116 -562 -257
-72 -136 -70 -318 4 -455 96 -175 354 -265 611 -212 105 21 203 75 278 151
l62 62 10 -58 c6 -32 17 -74 26 -94 l15 -37 180 0 c119 0 181 4 181 10 0 6 -9
23 -20 38 -36 50 -40 105 -40 602 0 379 -3 500 -14 552 -40 185 -161 309 -352
359 -92 24 -321 34 -421 18z m445 -965 c-3 -123 -5 -134 -36 -197 -61 -122
-170 -193 -317 -204 -134 -10 -235 30 -276 109 -17 34 -20 55 -17 119 3 69 6
81 34 116 41 50 113 85 232 113 186 43 257 63 317 90 73 32 69 41 63 -146z"/>
<path d="M9255 6824 c-11 -2 -44 -9 -73 -15 -76 -15 -168 -55 -244 -106 -222
-147 -353 -439 -335 -747 19 -322 189 -582 452 -693 108 -46 173 -57 325 -57
171 0 244 15 370 76 115 55 230 169 283 278 20 41 39 85 42 98 l6 22 -179 0
-180 0 -12 -31 c-21 -50 -95 -115 -158 -140 -47 -19 -77 -23 -167 -24 -103 0
-114 2 -177 32 -83 39 -148 104 -187 186 -25 54 -35 88 -57 195 l-4 22 576 0
577 0 -6 105 c-25 410 -204 676 -522 775 -51 16 -103 23 -190 25 -66 2 -129 2
-140 -1z m270 -296 c64 -33 130 -104 160 -171 23 -54 45 -141 45 -182 l0 -25
-381 0 -382 0 7 41 c20 124 86 247 163 304 71 52 121 65 238 62 85 -3 108 -7
150 -29z"/>
<path d="M10785 6821 c-261 -42 -429 -185 -454 -386 -10 -87 3 -195 32 -258
70 -152 190 -215 554 -291 94 -20 191 -43 215 -52 103 -36 148 -90 148 -176
-1 -140 -126 -218 -330 -205 -185 11 -279 82 -326 245 -2 9 -47 12 -179 12
-133 0 -175 -3 -175 -12 0 -7 7 -42 15 -77 47 -197 202 -339 440 -403 67 -18
108 -21 255 -21 149 -1 187 3 255 21 161 44 290 133 348 239 93 172 69 416
-53 542 -88 91 -191 132 -476 191 -241 50 -298 69 -344 115 -32 32 -35 40 -35
93 0 49 5 65 29 96 47 62 101 81 231 81 101 0 115 -2 168 -29 62 -30 111 -84
122 -137 l7 -29 174 0 c198 0 187 -7 153 93 -55 166 -183 277 -378 329 -84 22
-309 33 -396 19z"/>
<path d="M8265 6796 c-83 -20 -147 -56 -211 -120 -33 -34 -74 -86 -92 -116
l-32 -55 0 143 0 142 -180 0 -180 0 0 -775 0 -775 184 0 185 0 3 453 c4 439 4
454 26 512 32 85 85 158 145 199 85 58 128 70 255 70 l112 1 0 161 c0 159 0
162 -22 168 -37 9 -139 5 -193 -8z"/>
</g>
</svg>
